<svg width="181" height="50" viewBox="0 0 181 50" fill="none" xmlns="http://www.w3.org/2000/svg">
<path d="M178.009 16.8106H173.732V16.7556H161.115V16.8106H155.062H152.69V19.1999V21.1981C152.441 20.8803 152.18 20.5809 151.901 20.2937C150.852 19.2182 149.608 18.3688 148.207 17.7516C146.782 17.1283 145.241 16.8106 143.627 16.8106H129.682H129.512H127.31H127.14H123.264V16.7556H109.774V16.8106H104.187H101.815V19.1999V23.9418C101.712 23.7768 101.615 23.6057 101.506 23.4407C100.511 21.9741 99.3163 20.697 97.9575 19.6398C96.5988 18.5888 95.0702 17.7516 93.4081 17.1528C91.7218 16.5417 89.9324 16.2362 88.0884 16.2362C85.838 16.2362 83.6906 16.6822 81.701 17.5561C81.3371 17.715 80.9853 17.8922 80.6395 18.0755C81.7435 15.9978 82.3683 13.6208 82.3683 11.1032V6.86844C82.3683 5.00467 80.864 3.48311 79.0078 3.48311H75.6898C75.6109 1.54601 74.0277 0 72.0927 0H47.8778C46.9194 0 46.0156 0.372753 45.3362 1.05715L45.3241 1.06937H45.318C44.6811 1.72322 44.3172 2.57261 44.2808 3.48311H40.9627C39.1127 3.48311 37.6023 5.00467 37.6023 6.86844V11.1032C37.6023 13.7185 38.2816 16.1751 39.4645 18.3077C39.3735 18.2649 39.2886 18.2221 39.1976 18.1855C37.2383 17.3361 35.1334 16.9022 32.9255 16.9022H21.5763H21.5459H19.2045H19.1742H2.37175H0V19.2915V47.1991V49.5884H2.37175H11.6343H14.0061V47.1991V42.5306H19.1742H19.2045V47.1991V49.5884H21.5763H32.9255C35.1334 49.5884 37.2444 49.1607 39.1976 48.3113C39.9255 47.9935 40.6231 47.633 41.2842 47.2236H47.7747C48.0173 48.5679 49.188 49.5945 50.5893 49.5945H69.3631C70.7704 49.5945 71.935 48.5679 72.1776 47.2236H79.6508C80.2998 47.6208 80.9792 47.9813 81.6828 48.293C83.6724 49.1668 85.8198 49.6129 88.0702 49.6129C90.3206 49.6129 92.4679 49.1668 94.4575 48.293C96.4229 47.4252 98.1699 46.2153 99.6378 44.6999C100.851 43.4472 101.852 42.005 102.64 40.4101C102.719 40.6179 102.798 40.8318 102.883 41.0334C103.599 42.7322 104.594 44.2293 105.837 45.4881C107.081 46.7469 108.549 47.7552 110.205 48.4824C111.891 49.2279 113.717 49.6068 115.64 49.6068C117.538 49.6068 119.358 49.2279 121.056 48.4885C122.724 47.7552 124.205 46.7469 125.442 45.4881C126.14 44.7793 126.752 43.991 127.286 43.1416V46.637V49.0262H129.658H138.769H141.14H141.874H148.262H152.999H156.657H162.559C163.821 49.4112 165.143 49.6068 166.52 49.6068C168.419 49.6068 170.238 49.2279 171.937 48.4885C173.605 47.7552 175.085 46.7469 176.322 45.4881C177.566 44.2232 178.561 42.7261 179.276 41.0334C179.998 39.3224 180.368 37.4648 180.368 35.5093V19.1999V16.8106H178.009ZM75.6413 11.1032C75.6413 15.4723 72.117 19.0899 67.786 19.1693L66.8094 19.1876L66.13 19.8965L64.2132 21.8886L62.6118 23.5507H58.7721L56.2123 21.6319L53.5494 19.6398L52.9367 19.1815L52.1724 19.1693C47.8414 19.0899 44.3172 15.4723 44.3172 11.1032V10.2538H49.1092H51.4809V7.86449V7.26564H68.2834L68.247 7.56506L67.9133 10.2538H70.6005H75.6413V11.1032Z" fill="black"/>
<path d="M72.0867 2.38928C72.766 2.38928 73.3241 2.94536 73.3241 3.63587C73.3241 3.97807 73.1846 4.28971 72.9662 4.51581C72.7418 4.74191 72.4324 4.87634 72.0927 4.87634H47.8778C47.1984 4.87634 46.6404 4.32027 46.6404 3.62976C46.6404 3.28756 46.7799 2.97591 46.9983 2.74981C47.2227 2.52372 47.5321 2.38928 47.8717 2.38928H72.0867Z" fill="#B67A2B"/>
<path d="M69.3692 45.207C69.6421 45.207 69.8605 45.4331 69.8605 45.702V46.698C69.8605 46.973 69.6361 47.193 69.3692 47.193H50.5953C50.3224 47.193 50.104 46.9669 50.104 46.698V45.702C50.104 45.427 50.3284 45.207 50.5953 45.207H69.3692Z" fill="black"/>
<path d="M79.0017 5.87244C79.5477 5.87244 79.9905 6.31852 79.9905 6.86848V11.1032C79.9905 17.9778 74.4584 23.5507 67.6404 23.5507H65.9116L67.8284 21.5586C73.4636 21.4548 78.013 16.8045 78.013 11.1032V7.86453H70.6005L70.8492 5.87244H79.0017Z" fill="#F3B81A"/>
<path d="M66.4029 35.5399V37.7398H53.5615V35.5399C53.5615 35.3627 53.6586 35.1916 53.8163 35.1061L54.7868 34.5561C56.4731 33.6028 57.5165 31.8063 57.5165 29.857V27.5349H62.4541V29.857C62.4541 31.8063 63.4974 33.6028 65.1837 34.5561L66.1542 35.1061C66.3059 35.1977 66.4029 35.3627 66.4029 35.5399Z" fill="#E8A723"/>
<path d="M66.4029 35.5399V37.7398H65.1655V35.5399C65.1655 35.3627 65.0685 35.1916 64.9107 35.1061L63.9402 34.5561C62.2539 33.6028 61.2106 31.8063 61.2106 29.857V27.5349H62.448V29.857C62.448 31.8063 63.4913 33.6028 65.1776 34.5561L66.1482 35.1061C66.3059 35.1977 66.4029 35.3627 66.4029 35.5399Z" fill="#B67A2B"/>
<path d="M63.9341 25.5917V27.0338C63.9341 27.7182 63.3821 28.2804 62.6967 28.2804H57.2617C56.5823 28.2804 56.0242 27.7243 56.0242 27.0338V25.5917H63.9341Z" fill="#E8A723"/>
<path d="M62.448 28.2804H57.5104V29.0137H62.448V28.2804Z" fill="#B67A2B"/>
<path d="M68.3804 37.2448V45.9587H51.584V37.2448C51.584 36.9699 51.8085 36.7499 52.0754 36.7499H67.883C68.156 36.7438 68.3804 36.9699 68.3804 37.2448Z" fill="#353C49"/>
<path d="M68.3804 37.2448V45.9587H67.3917V37.2448C67.3917 36.9699 67.1672 36.7499 66.9003 36.7499H67.8891C68.156 36.7438 68.3804 36.9699 68.3804 37.2448Z" fill="#272D38"/>
<path d="M69.3691 45.2071H68.3804C68.5563 45.2071 65.4809 45.1887 63.279 45.2498C59.0329 45.1704 51.6386 45.2071 51.8327 45.2071H50.844C50.571 45.2071 50.3527 45.4332 50.3527 45.702V46.6981C50.3527 46.973 50.5771 47.193 50.844 47.193H51.487L51.3839 47.2114C54.8535 47.2114 68.6534 47.193 68.3804 47.193H69.3691C69.6421 47.193 69.8605 46.9669 69.8605 46.6981V45.702C69.8605 45.4332 69.6421 45.2071 69.3691 45.2071Z" fill="#171C23"/>
<path d="M65.9116 39.2369V42.72C65.9116 42.995 65.6872 43.215 65.4203 43.215H54.5502C54.2773 43.215 54.0589 42.9889 54.0589 42.72V39.2369C54.0589 38.9619 54.2833 38.7419 54.5502 38.7419H65.4203C65.6872 38.7358 65.9116 38.9619 65.9116 39.2369Z" fill="#E8A723"/>
<path d="M63.9341 25.5917V27.0338C63.9341 27.7182 63.3821 28.2804 62.6967 28.2804H61.7079C62.3873 28.2804 62.9454 27.7243 62.9454 27.0338V25.5917H63.9341Z" fill="#B67A2B"/>
<path d="M49.1152 5.87244V7.86453H41.9514V11.1032C41.9514 16.8045 46.5008 21.4548 52.136 21.5586L54.7989 23.5507H52.3301C45.5121 23.5507 39.98 17.9778 39.98 11.1032V6.86848C39.98 6.31852 40.4228 5.87244 40.9688 5.87244H49.1152Z" fill="#F3B81A"/>
<path d="M72.0866 3.88025V4.87629C72.0866 16.9755 66.6698 26.7832 59.9853 26.7832C53.3007 26.7832 47.8778 16.9755 47.8778 4.87629V3.88025H72.0866Z" fill="#E8A723"/>
<path d="M47.9931 7.86453H47.0043C46.9558 7.21068 46.9255 6.54461 46.9073 5.87244H47.896C47.9082 6.54461 47.9385 7.21068 47.9931 7.86453Z" fill="#B67A2B"/>
<path d="M53.6464 23.5507H52.6577C52.1057 22.9396 51.584 22.2491 51.0988 21.4852C51.4384 21.528 51.7842 21.5524 52.136 21.5586C52.6092 22.2918 53.1187 22.9579 53.6464 23.5507Z" fill="#B67A2B"/>
<path d="M63.9341 25.5917V26.0866C62.6967 26.8627 61.3622 27.2843 59.9792 27.2843C58.5962 27.2843 57.2677 26.8627 56.0242 26.0866V25.5917C57.2617 26.3677 58.5962 26.7894 59.9792 26.7894C61.3622 26.7894 62.6967 26.3677 63.9341 25.5917Z" fill="#B67A2B"/>
<path d="M72.0867 3.88025V4.87629C72.0867 16.5966 67.0035 26.1721 60.604 26.7588C66.8215 26.166 69.1205 16.5905 69.1205 4.87629V3.88025H72.0867Z" fill="#B67A2B"/>
<path d="M72.0866 4.87634C72.0866 5.21243 72.0806 5.54241 72.0745 5.87239H47.8899C47.8839 5.54241 47.8778 5.21243 47.8778 4.87634H72.0866Z" fill="#B67A2B"/>
<path d="M73.3241 3.62976C73.3241 3.97196 73.1846 4.28361 72.9662 4.50971C72.7418 4.7358 72.4324 4.87024 72.0927 4.87024H69.3752C69.7149 4.87024 70.0243 4.72969 70.2487 4.50971C70.4731 4.28361 70.6066 3.97196 70.6066 3.62976C70.6066 2.94536 70.0546 2.38318 69.3691 2.38318H72.0866C72.766 2.38929 73.3241 2.94536 73.3241 3.62976Z" fill="#B67A2B"/>
<path d="M65.9116 39.2369V42.72C65.9116 42.995 65.6871 43.215 65.4202 43.215H55.6118C57.6074 43.1722 64.1828 42.7445 64.1828 38.7358H65.4202C65.6871 38.7358 65.9116 38.9619 65.9116 39.2369Z" fill="#B67A2B"/>
<path d="M54.5502 41.4735V39.4386C54.5502 39.3286 54.6412 39.2369 54.7504 39.2369H59.1785C59.1785 39.2369 55.6603 39.6097 54.5502 41.4735Z" fill="#FFCC67"/>
<path d="M52.1421 39.4813V37.4464C52.1421 37.3364 52.2331 37.2448 52.3423 37.2448H56.7703C56.7703 37.2448 53.2521 37.6175 52.1421 39.4813Z" fill="#4F5869"/>
<path d="M59.9853 26.0377C57.3042 26.0377 49.8614 20.3364 48.9636 6.86841H51.8995C52.6335 23.3429 59.9853 26.0377 59.9853 26.0377Z" fill="#FFCC67"/>
<path d="M54.7929 35.7477C54.7929 35.7477 58.2504 33.505 58.2504 30.2725V35.7477H54.7929Z" fill="#FFCC67"/>
<path d="M48.3752 2.88428V3.62978H47.1378C47.1378 3.22037 47.4714 2.88428 47.8778 2.88428H48.3752Z" fill="#FFCC67"/>
<path d="M72.8146 5.87244C72.7964 6.54461 72.766 7.21068 72.7114 7.86453H70.6005L70.8492 5.87244H72.8146Z" fill="#B67A2B"/>
<path d="M68.5988 21.5098C68.1135 22.2614 67.5979 22.9397 67.052 23.5446H65.9055L66.779 22.6402L67.8223 21.5525C68.0892 21.5525 68.344 21.5342 68.5988 21.5098Z" fill="#B67A2B"/>
<path d="M19.1742 26.2822H11.6343V30.2908H18.2219V36.7987H11.6343V47.1991H2.37177V19.2915H19.1742V26.2822Z" fill="#E8A723"/>
<mask id="mask0_1_4" style="mask-type:luminance" maskUnits="userSpaceOnUse" x="2" y="19" width="18" height="29">
<path d="M19.1742 26.2822H11.6343V30.2908H18.2219V36.7987H11.6343V47.1991H2.37177V19.2915H19.1742V26.2822Z" fill="white"/>
</mask>
<g mask="url(#mask0_1_4)">
<path d="M-4.95576 30.3458C-3.43323 31.1586 0.333665 23.7218 4.61616 24.6445C7.21235 25.2067 7.22448 29.0992 10.7669 29.7592C17.0876 30.9263 19.1014 29.4109 21.5763 25.0845C24.0754 20.7153 22.4983 16.8106 19.4108 14.128C14.2305 9.63051 5.92032 10.7488 0.915988 14.568C-5.72613 19.6399 -6.54502 29.4964 -4.95576 30.3458Z" fill="white"/>
</g>
<path d="M19.1742 26.2822H11.6343V30.2908H18.2219V36.7987H11.6343V47.1991H2.37177V19.2915H19.1742V26.2822Z" stroke="white" stroke-miterlimit="10"/>
<path d="M45.5303 27.8037C44.8145 26.0988 43.8379 24.62 42.6066 23.3551C41.3752 22.0902 39.9255 21.1003 38.2634 20.3792C36.6014 19.6581 34.8241 19.2976 32.9315 19.2976H21.5762V47.2052H32.9255C34.818 47.2052 36.5953 46.8447 38.2573 46.1236C39.9194 45.4026 41.3691 44.4065 42.6005 43.1477C43.8319 41.8828 44.8085 40.4101 45.5242 38.7174C46.24 37.0248 46.604 35.2099 46.604 33.2728C46.604 31.3296 46.2461 29.5086 45.5303 27.8037ZM37.5658 35.6193C37.2504 36.3587 36.8319 36.982 36.2859 37.5197C35.7461 38.0575 35.1274 38.473 34.3934 38.7786C33.6655 39.0841 32.9255 39.2307 32.1248 39.2307H30.7357V27.2599H32.1248C32.9255 27.2599 33.6655 27.4065 34.3934 27.7121C35.1152 28.0176 35.7339 28.4331 36.2677 28.9831C36.8076 29.5392 37.2443 30.193 37.5598 30.9263C37.8691 31.6474 38.0208 32.4173 38.0208 33.2728C38.0268 34.1283 37.8752 34.8983 37.5658 35.6193Z" fill="#E8A723"/>
<mask id="mask1_1_4" style="mask-type:luminance" maskUnits="userSpaceOnUse" x="21" y="19" width="26" height="29">
<path d="M45.5303 27.8037C44.8145 26.0988 43.8379 24.62 42.6066 23.3551C41.3752 22.0902 39.9255 21.1003 38.2634 20.3792C36.6014 19.6581 34.8241 19.2976 32.9315 19.2976H21.5762V47.2052H32.9255C34.818 47.2052 36.5953 46.8447 38.2573 46.1236C39.9194 45.4026 41.3691 44.4065 42.6005 43.1477C43.8319 41.8828 44.8085 40.4101 45.5242 38.7174C46.24 37.0248 46.604 35.2099 46.604 33.2728C46.604 31.3296 46.2461 29.5086 45.5303 27.8037ZM37.5658 35.6193C37.2504 36.3587 36.8319 36.982 36.2859 37.5197C35.7461 38.0575 35.1274 38.473 34.3934 38.7786C33.6655 39.0841 32.9255 39.2307 32.1248 39.2307H30.7357V27.2599H32.1248C32.9255 27.2599 33.6655 27.4065 34.3934 27.7121C35.1152 28.0176 35.7339 28.4331 36.2677 28.9831C36.8076 29.5392 37.2443 30.193 37.5598 30.9263C37.8691 31.6474 38.0208 32.4173 38.0208 33.2728C38.0268 34.1283 37.8752 34.8983 37.5658 35.6193Z" fill="white"/>
</mask>
<g mask="url(#mask1_1_4)">
<path d="M19.1741 29.5575L29.201 26.7588L36.7045 32.6373C40.3986 34.33 43.9714 34.4706 47.3804 32.6373L51.5779 28.2804L39.974 16.4562H19.1741V30.2725V29.5575Z" fill="white"/>
</g>
<path d="M45.5303 27.8037C44.8145 26.0988 43.8379 24.62 42.6066 23.3551C41.3752 22.0902 39.9255 21.1003 38.2634 20.3792C36.6014 19.6581 34.8241 19.2976 32.9315 19.2976H21.5762V47.2052H32.9255C34.818 47.2052 36.5953 46.8447 38.2573 46.1236C39.9194 45.4026 41.3691 44.4065 42.6005 43.1477C43.8319 41.8828 44.8085 40.4101 45.5242 38.7174C46.24 37.0248 46.604 35.2099 46.604 33.2728C46.604 31.3296 46.2461 29.5086 45.5303 27.8037ZM37.5658 35.6193C37.2504 36.3587 36.8319 36.982 36.2859 37.5197C35.7461 38.0575 35.1274 38.473 34.3934 38.7786C33.6655 39.0841 32.9255 39.2307 32.1248 39.2307H30.7357V27.2599H32.1248C32.9255 27.2599 33.6655 27.4065 34.3934 27.7121C35.1152 28.0176 35.7339 28.4331 36.2677 28.9831C36.8076 29.5392 37.2443 30.193 37.5598 30.9263C37.8691 31.6474 38.0208 32.4173 38.0208 33.2728C38.0268 34.1283 37.8752 34.8983 37.5658 35.6193Z" stroke="white" stroke-miterlimit="10"/>
<path d="M88.0823 18.6194C89.6595 18.6194 91.1638 18.876 92.6014 19.3954C94.039 19.9149 95.3371 20.6237 96.5018 21.5281C97.6664 22.4325 98.6794 23.5141 99.5407 24.7851C100.402 26.05 101.039 27.4188 101.464 28.8915H91.5095C91.0364 28.4821 90.5147 28.1582 89.9385 27.9138C89.3622 27.6755 88.7435 27.5532 88.0823 27.5532C87.3544 27.5532 86.669 27.6938 86.0321 27.9688C85.3952 28.2438 84.8371 28.6348 84.3579 29.1237C83.8726 29.6187 83.4966 30.1931 83.2297 30.8408C82.9567 31.4947 82.8232 32.1913 82.8232 32.9368C82.8232 33.6823 82.9567 34.385 83.2297 35.0328C83.5026 35.6866 83.8787 36.2488 84.3579 36.7315C84.8371 37.2143 85.4012 37.5931 86.0321 37.8681C86.669 38.1431 87.3484 38.2837 88.0823 38.2837C89.0225 38.2837 89.8839 38.0576 90.6603 37.5993C91.4368 37.141 92.0615 36.5299 92.5347 35.7538H87.9792V31.2686H101.961C101.985 31.5313 102.003 31.8063 102.016 32.0813C102.028 32.3563 102.034 32.6435 102.034 32.9307C102.034 34.8861 101.67 36.7254 100.942 38.4609C100.214 40.1963 99.2193 41.7179 97.9576 43.0195C96.6959 44.321 95.2219 45.3476 93.5234 46.0931C91.831 46.8387 90.0173 47.2114 88.0884 47.2114C86.1595 47.2114 84.3458 46.8387 82.6534 46.0931C80.961 45.3476 79.4749 44.321 78.2071 43.0195C76.9333 41.7179 75.9324 40.1963 75.2045 38.4609C74.4766 36.7254 74.1127 34.88 74.1127 32.9307C74.1127 30.9569 74.4766 29.0993 75.2045 27.3638C75.9324 25.6284 76.9333 24.1068 78.2071 22.8052C79.481 21.5036 80.961 20.477 82.6534 19.7315C84.3397 18.9982 86.1534 18.6194 88.0823 18.6194Z" fill="#E8A723"/>
<mask id="mask2_1_4" style="mask-type:luminance" maskUnits="userSpaceOnUse" x="74" y="18" width="29" height="30">
<path d="M88.0823 18.6194C89.6595 18.6194 91.1638 18.876 92.6014 19.3954C94.039 19.9149 95.3371 20.6237 96.5018 21.5281C97.6664 22.4325 98.6794 23.5141 99.5407 24.7851C100.402 26.05 101.039 27.4188 101.464 28.8915H91.5095C91.0364 28.4821 90.5147 28.1582 89.9385 27.9138C89.3622 27.6755 88.7435 27.5532 88.0823 27.5532C87.3544 27.5532 86.669 27.6938 86.0321 27.9688C85.3952 28.2438 84.8371 28.6348 84.3579 29.1237C83.8726 29.6187 83.4966 30.1931 83.2297 30.8408C82.9567 31.4947 82.8232 32.1913 82.8232 32.9368C82.8232 33.6823 82.9567 34.385 83.2297 35.0328C83.5026 35.6866 83.8787 36.2488 84.3579 36.7315C84.8371 37.2143 85.4012 37.5931 86.0321 37.8681C86.669 38.1431 87.3484 38.2837 88.0823 38.2837C89.0225 38.2837 89.8839 38.0576 90.6603 37.5993C91.4368 37.141 92.0615 36.5299 92.5347 35.7538H87.9792V31.2686H101.961C101.985 31.5313 102.003 31.8063 102.016 32.0813C102.028 32.3563 102.034 32.6435 102.034 32.9307C102.034 34.8861 101.67 36.7254 100.942 38.4609C100.214 40.1963 99.2193 41.7179 97.9576 43.0195C96.6959 44.321 95.2219 45.3476 93.5234 46.0931C91.831 46.8387 90.0173 47.2114 88.0884 47.2114C86.1595 47.2114 84.3458 46.8387 82.6534 46.0931C80.961 45.3476 79.4749 44.321 78.2071 43.0195C76.9333 41.7179 75.9324 40.1963 75.2045 38.4609C74.4766 36.7254 74.1127 34.88 74.1127 32.9307C74.1127 30.9569 74.4766 29.0993 75.2045 27.3638C75.9324 25.6284 76.9333 24.1068 78.2071 22.8052C79.481 21.5036 80.961 20.477 82.6534 19.7315C84.3397 18.9982 86.1534 18.6194 88.0823 18.6194Z" fill="white"/>
</mask>
<g mask="url(#mask2_1_4)">
<path d="M101.403 21.4793L89.6049 29.857C84.825 31.4519 79.2686 30.5414 73.3241 28.3599L77.3579 17.5867C89.344 14.9958 96.5563 17.0795 101.403 21.4793Z" fill="white"/>
</g>
<path d="M88.0823 18.6194C89.6595 18.6194 91.1638 18.876 92.6014 19.3954C94.039 19.9149 95.3371 20.6237 96.5018 21.5281C97.6664 22.4325 98.6794 23.5141 99.5407 24.7851C100.402 26.05 101.039 27.4188 101.464 28.8915H91.5095C91.0364 28.4821 90.5147 28.1582 89.9385 27.9138C89.3622 27.6755 88.7435 27.5532 88.0823 27.5532C87.3544 27.5532 86.669 27.6938 86.0321 27.9688C85.3952 28.2438 84.8371 28.6348 84.3579 29.1237C83.8726 29.6187 83.4966 30.1931 83.2297 30.8408C82.9567 31.4947 82.8232 32.1913 82.8232 32.9368C82.8232 33.6823 82.9567 34.385 83.2297 35.0328C83.5026 35.6866 83.8787 36.2488 84.3579 36.7315C84.8371 37.2143 85.4012 37.5931 86.0321 37.8681C86.669 38.1431 87.3484 38.2837 88.0823 38.2837C89.0225 38.2837 89.8839 38.0576 90.6603 37.5993C91.4368 37.141 92.0615 36.5299 92.5347 35.7538H87.9792V31.2686H101.961C101.985 31.5313 102.003 31.8063 102.016 32.0813C102.028 32.3563 102.034 32.6435 102.034 32.9307C102.034 34.8861 101.67 36.7254 100.942 38.4609C100.214 40.1963 99.2193 41.7179 97.9576 43.0195C96.6959 44.321 95.2219 45.3476 93.5234 46.0931C91.831 46.8387 90.0173 47.2114 88.0884 47.2114C86.1595 47.2114 84.3458 46.8387 82.6534 46.0931C80.961 45.3476 79.4749 44.321 78.2071 43.0195C76.9333 41.7179 75.9324 40.1963 75.2045 38.4609C74.4766 36.7254 74.1127 34.88 74.1127 32.9307C74.1127 30.9569 74.4766 29.0993 75.2045 27.3638C75.9324 25.6284 76.9333 24.1068 78.2071 22.8052C79.481 21.5036 80.961 20.477 82.6534 19.7315C84.3397 18.9982 86.1534 18.6194 88.0823 18.6194Z" stroke="white" stroke-miterlimit="10"/>
<path d="M127.134 19.1998V35.5032C127.134 37.1409 126.837 38.6747 126.237 40.0924C125.636 41.5161 124.817 42.7505 123.78 43.7954C122.743 44.8465 121.523 45.6775 120.128 46.2886C118.727 46.9058 117.241 47.2113 115.664 47.2113C114.062 47.2113 112.57 46.9058 111.181 46.2886C109.792 45.6714 108.579 44.8404 107.542 43.7954C106.504 42.7444 105.685 41.51 105.085 40.0924C104.484 38.6686 104.187 37.1409 104.187 35.5032V19.1998H112.734V35.5032C112.734 36.3465 113.019 37.0431 113.601 37.5992C114.178 38.1553 114.869 38.4302 115.664 38.4302C116.489 38.4302 117.186 38.1553 117.763 37.5992C118.339 37.0431 118.63 36.3465 118.63 35.5032V19.1998H127.134Z" fill="#E8A723"/>
<mask id="mask3_1_4" style="mask-type:luminance" maskUnits="userSpaceOnUse" x="104" y="19" width="24" height="29">
<path d="M127.134 19.1998V35.5032C127.134 37.1409 126.837 38.6747 126.237 40.0924C125.636 41.5161 124.817 42.7505 123.78 43.7954C122.743 44.8465 121.523 45.6775 120.128 46.2886C118.727 46.9058 117.241 47.2113 115.664 47.2113C114.062 47.2113 112.57 46.9058 111.181 46.2886C109.792 45.6714 108.579 44.8404 107.542 43.7954C106.504 42.7444 105.685 41.51 105.085 40.0924C104.484 38.6686 104.187 37.1409 104.187 35.5032V19.1998H112.734V35.5032C112.734 36.3465 113.019 37.0431 113.601 37.5992C114.178 38.1553 114.869 38.4302 115.664 38.4302C116.489 38.4302 117.186 38.1553 117.763 37.5992C118.339 37.0431 118.63 36.3465 118.63 35.5032V19.1998H127.134Z" fill="white"/>
</mask>
<g mask="url(#mask3_1_4)">
<path d="M100.845 26.9054C104.994 30.8591 109.956 32.9978 115.64 33.5356C121.378 32.7228 126.619 30.9324 130.725 26.9054L130.143 17.1161H100.263L100.845 26.9054Z" fill="white"/>
</g>
<path d="M127.134 19.1998V35.5032C127.134 37.1409 126.837 38.6747 126.237 40.0924C125.636 41.5161 124.817 42.7505 123.78 43.7954C122.743 44.8465 121.523 45.6775 120.128 46.2886C118.727 46.9058 117.241 47.2113 115.664 47.2113C114.062 47.2113 112.57 46.9058 111.181 46.2886C109.792 45.6714 108.579 44.8404 107.542 43.7954C106.504 42.7444 105.685 41.51 105.085 40.0924C104.484 38.6686 104.187 37.1409 104.187 35.5032V19.1998H112.734V35.5032C112.734 36.3465 113.019 37.0431 113.601 37.5992C114.178 38.1553 114.869 38.4302 115.664 38.4302C116.489 38.4302 117.186 38.1553 117.763 37.5992C118.339 37.0431 118.63 36.3465 118.63 35.5032V19.1998H127.134Z" stroke="white" stroke-miterlimit="10"/>
<path d="M148.601 36.7009C149.893 35.8576 150.937 34.7394 151.725 33.34C152.514 31.9406 152.908 30.4008 152.908 28.7142C152.908 27.3882 152.666 26.1477 152.186 24.9928C151.701 23.8378 151.046 22.8296 150.209 21.9741C149.372 21.1186 148.389 20.4464 147.261 19.9514C146.133 19.4565 144.919 19.212 143.621 19.212H129.676V46.6552H138.787V37.7947L141.893 46.6552H153.011L148.601 36.7009ZM143.53 31.134C143.094 31.5679 142.584 31.7879 141.996 31.7879H138.781V27.3393H141.996C142.584 27.3393 143.094 27.5593 143.53 27.9931C143.967 28.427 144.185 28.9464 144.185 29.5452C144.185 30.1685 143.967 30.7002 143.53 31.134Z" fill="#E8A723"/>
<mask id="mask4_1_4" style="mask-type:luminance" maskUnits="userSpaceOnUse" x="129" y="19" width="25" height="28">
<path d="M148.601 36.7009C149.893 35.8576 150.937 34.7394 151.725 33.34C152.514 31.9406 152.908 30.4008 152.908 28.7142C152.908 27.3882 152.666 26.1477 152.186 24.9928C151.701 23.8378 151.046 22.8296 150.209 21.9741C149.372 21.1186 148.389 20.4464 147.261 19.9514C146.133 19.4565 144.919 19.212 143.621 19.212H129.676V46.6552H138.787V37.7947L141.893 46.6552H153.011L148.601 36.7009ZM143.53 31.134C143.094 31.5679 142.584 31.7879 141.996 31.7879H138.781V27.3393H141.996C142.584 27.3393 143.094 27.5593 143.53 27.9931C143.967 28.427 144.185 28.9464 144.185 29.5452C144.185 30.1685 143.967 30.7002 143.53 31.134Z" fill="white"/>
</mask>
<g mask="url(#mask4_1_4)">
<path d="M124.775 28.8792C124.775 28.8792 133.212 31.6045 137.234 30.9385C139.569 30.5535 141.893 30.1685 144.088 28.4025C145.69 27.1071 145.526 27.2904 147.2 25.8666C150.743 29.1175 151.701 29.6674 153.43 29.1969C155.45 28.647 154.206 18.0999 154.206 18.0999C154.206 18.0999 150.373 16.7494 136.767 16.3583C130.113 16.1689 126.491 17.4705 126.491 17.4705L124.775 28.8792Z" fill="white"/>
</g>
<path d="M148.601 36.7009C149.893 35.8576 150.937 34.7394 151.725 33.34C152.514 31.9407 152.908 30.4008 152.908 28.7142C152.908 27.3882 152.666 26.1477 152.186 24.9928C151.701 23.8378 151.046 22.8296 150.209 21.9741C149.372 21.1186 148.389 20.4464 147.261 19.9514C146.133 19.4565 144.919 19.212 143.621 19.212H129.676V46.6552H138.787V37.7947L141.893 46.6552H153.011L148.601 36.7009ZM143.53 31.134C143.094 31.5679 142.584 31.7879 141.996 31.7879H138.781V27.3393H141.996C142.584 27.3393 143.094 27.5593 143.53 27.9931C143.967 28.427 144.185 28.9464 144.185 29.5452C144.185 30.1685 143.967 30.7002 143.53 31.134Z" stroke="white" stroke-miterlimit="10"/>
<path d="M178.009 19.1998V35.5032C178.009 37.1409 177.711 38.6747 177.111 40.0924C176.51 41.5161 175.692 42.7505 174.654 43.7954C173.617 44.8465 172.398 45.6775 171.003 46.2886C169.601 46.9058 168.115 47.2113 166.538 47.2113C164.937 47.2113 163.445 46.9058 162.055 46.2886C160.666 45.6714 159.453 44.8404 158.416 43.7954C157.379 42.7444 156.56 41.51 155.959 40.0924C155.359 38.6686 155.062 37.1409 155.062 35.5032V19.1998H163.608V35.5032C163.608 36.3465 163.893 37.0431 164.476 37.5992C165.052 38.1553 165.744 38.4302 166.538 38.4302C167.363 38.4302 168.061 38.1553 168.637 37.5992C169.213 37.0431 169.504 36.3465 169.504 35.5032V19.1998H178.009Z" fill="#E8A723"/>
<mask id="mask5_1_4" style="mask-type:luminance" maskUnits="userSpaceOnUse" x="155" y="19" width="24" height="29">
<path d="M178.009 19.1998V35.5032C178.009 37.1409 177.711 38.6747 177.111 40.0924C176.51 41.5161 175.692 42.7505 174.654 43.7954C173.617 44.8465 172.398 45.6775 171.003 46.2886C169.601 46.9058 168.115 47.2113 166.538 47.2113C164.937 47.2113 163.445 46.9058 162.055 46.2886C160.666 45.6714 159.453 44.8404 158.416 43.7954C157.379 42.7444 156.56 41.51 155.959 40.0924C155.359 38.6686 155.062 37.1409 155.062 35.5032V19.1998H163.608V35.5032C163.608 36.3465 163.893 37.0431 164.476 37.5992C165.052 38.1553 165.744 38.4302 166.538 38.4302C167.363 38.4302 168.061 38.1553 168.637 37.5992C169.213 37.0431 169.504 36.3465 169.504 35.5032V19.1998H178.009Z" fill="white"/>
</mask>
<g mask="url(#mask5_1_4)">
<path d="M152.114 29.967C156.354 31.4091 163.772 29.0076 164.233 28.7937C166.344 27.816 167.569 27.0399 167.569 27.0399C167.569 27.0399 172.392 30.6575 179.786 28.3537C182.503 27.5105 179.604 16.6639 179.604 16.6639L152.914 17.8311C152.92 17.8372 152.811 20.6359 152.114 29.967Z" fill="white"/>
</g>
<path d="M178.009 19.1998V35.5032C178.009 37.1409 177.711 38.6747 177.111 40.0924C176.51 41.5161 175.692 42.7505 174.654 43.7954C173.617 44.8465 172.398 45.6775 171.003 46.2886C169.601 46.9058 168.115 47.2113 166.538 47.2113C164.937 47.2113 163.445 46.9058 162.055 46.2886C160.666 45.6714 159.453 44.8404 158.416 43.7954C157.379 42.7444 156.56 41.51 155.959 40.0924C155.359 38.6686 155.062 37.1409 155.062 35.5032V19.1998H163.608V35.5032C163.608 36.3465 163.893 37.0431 164.476 37.5992C165.052 38.1553 165.744 38.4302 166.538 38.4302C167.363 38.4302 168.061 38.1553 168.637 37.5992C169.213 37.0431 169.504 36.3465 169.504 35.5032V19.1998H178.009Z" stroke="white" stroke-miterlimit="10"/>
</svg>
